<mxfile host="app.diagrams.net" modified="2022-02-25T03:01:44.510Z" agent="5.0 (Windows NT 10.0; Win64; x64) AppleWebKit/537.36 (KHTML, like Gecko) Chrome/98.0.4758.102 Safari/537.36" etag="8GPR9MW7fSRNjLbG2J4_" version="16.6.4" type="github">
  <diagram id="prtHgNgQTEPvFCAcTncT" name="Page-1">
    <mxGraphModel dx="1038" dy="579" grid="1" gridSize="10" guides="1" tooltips="1" connect="1" arrows="1" fold="1" page="1" pageScale="1" pageWidth="827" pageHeight="1169" math="0" shadow="0">
      <root>
        <mxCell id="0" />
        <mxCell id="1" parent="0" />
        <mxCell id="xbROvSDmepULWa9lhDUd-8" value="" style="edgeStyle=orthogonalEdgeStyle;rounded=0;orthogonalLoop=1;jettySize=auto;html=1;" edge="1" parent="1" source="xbROvSDmepULWa9lhDUd-1">
          <mxGeometry relative="1" as="geometry">
            <mxPoint x="460" y="240" as="targetPoint" />
          </mxGeometry>
        </mxCell>
        <mxCell id="xbROvSDmepULWa9lhDUd-9" value="目标的位置、姿态、速度、角速度" style="edgeLabel;html=1;align=center;verticalAlign=middle;resizable=0;points=[];" vertex="1" connectable="0" parent="xbROvSDmepULWa9lhDUd-8">
          <mxGeometry x="-0.2073" y="2" relative="1" as="geometry">
            <mxPoint as="offset" />
          </mxGeometry>
        </mxCell>
        <mxCell id="xbROvSDmepULWa9lhDUd-1" value="" style="rounded=1;whiteSpace=wrap;html=1;" vertex="1" parent="1">
          <mxGeometry x="230" y="70" width="460" height="120" as="geometry" />
        </mxCell>
        <mxCell id="xbROvSDmepULWa9lhDUd-2" value="非合作翻滚目标运动状态估计及预测" style="text;html=1;strokeColor=none;fillColor=none;align=center;verticalAlign=middle;whiteSpace=wrap;rounded=0;" vertex="1" parent="1">
          <mxGeometry x="70" y="95" width="130" height="30" as="geometry" />
        </mxCell>
        <mxCell id="xbROvSDmepULWa9lhDUd-3" value="运动特性分析" style="rounded=1;whiteSpace=wrap;html=1;" vertex="1" parent="1">
          <mxGeometry x="250" y="95" width="110" height="40" as="geometry" />
        </mxCell>
        <mxCell id="xbROvSDmepULWa9lhDUd-4" value="线速度及初始位置估计" style="rounded=1;whiteSpace=wrap;html=1;" vertex="1" parent="1">
          <mxGeometry x="380" y="90" width="140" height="40" as="geometry" />
        </mxCell>
        <mxCell id="xbROvSDmepULWa9lhDUd-5" value="转动惯量比值辨识" style="rounded=1;whiteSpace=wrap;html=1;" vertex="1" parent="1">
          <mxGeometry x="540" y="90" width="140" height="40" as="geometry" />
        </mxCell>
        <mxCell id="xbROvSDmepULWa9lhDUd-6" value="乘性扩展卡尔曼滤波" style="rounded=1;whiteSpace=wrap;html=1;" vertex="1" parent="1">
          <mxGeometry x="380" y="140" width="140" height="40" as="geometry" />
        </mxCell>
        <mxCell id="xbROvSDmepULWa9lhDUd-10" value="机械臂最优捕获路径规划" style="text;html=1;strokeColor=none;fillColor=none;align=center;verticalAlign=middle;whiteSpace=wrap;rounded=0;" vertex="1" parent="1">
          <mxGeometry x="70" y="275" width="140" height="30" as="geometry" />
        </mxCell>
        <mxCell id="xbROvSDmepULWa9lhDUd-29" style="edgeStyle=orthogonalEdgeStyle;rounded=0;orthogonalLoop=1;jettySize=auto;html=1;entryX=0.478;entryY=-0.002;entryDx=0;entryDy=0;entryPerimeter=0;" edge="1" parent="1" source="xbROvSDmepULWa9lhDUd-11" target="xbROvSDmepULWa9lhDUd-19">
          <mxGeometry relative="1" as="geometry" />
        </mxCell>
        <mxCell id="xbROvSDmepULWa9lhDUd-11" value="考虑的因素&lt;br&gt;&lt;br&gt;&lt;br&gt;&lt;br&gt;&lt;br&gt;" style="rounded=1;whiteSpace=wrap;html=1;" vertex="1" parent="1">
          <mxGeometry x="220" y="240" width="480" height="110" as="geometry" />
        </mxCell>
        <mxCell id="xbROvSDmepULWa9lhDUd-12" value="加速度约束" style="rounded=1;whiteSpace=wrap;html=1;" vertex="1" parent="1">
          <mxGeometry x="230" y="290" width="100" height="40" as="geometry" />
        </mxCell>
        <mxCell id="xbROvSDmepULWa9lhDUd-13" value="运动距离" style="rounded=1;whiteSpace=wrap;html=1;" vertex="1" parent="1">
          <mxGeometry x="590" y="290" width="100" height="40" as="geometry" />
        </mxCell>
        <mxCell id="xbROvSDmepULWa9lhDUd-14" value="视线角度" style="rounded=1;whiteSpace=wrap;html=1;" vertex="1" parent="1">
          <mxGeometry x="470" y="290" width="100" height="40" as="geometry" />
        </mxCell>
        <mxCell id="xbROvSDmepULWa9lhDUd-16" value="运动时间" style="rounded=1;whiteSpace=wrap;html=1;" vertex="1" parent="1">
          <mxGeometry x="350" y="290" width="100" height="40" as="geometry" />
        </mxCell>
        <mxCell id="xbROvSDmepULWa9lhDUd-17" value="笛卡尔空间路径" style="edgeLabel;html=1;align=center;verticalAlign=middle;resizable=0;points=[];" vertex="1" connectable="0" parent="1">
          <mxGeometry x="460" y="380" as="geometry" />
        </mxCell>
        <mxCell id="xbROvSDmepULWa9lhDUd-18" value="基座最小力矩扰动&lt;br&gt;逆运动学" style="text;html=1;strokeColor=none;fillColor=none;align=center;verticalAlign=middle;whiteSpace=wrap;rounded=0;" vertex="1" parent="1">
          <mxGeometry x="65" y="450" width="140" height="30" as="geometry" />
        </mxCell>
        <mxCell id="xbROvSDmepULWa9lhDUd-19" value="" style="rounded=1;whiteSpace=wrap;html=1;" vertex="1" parent="1">
          <mxGeometry x="230" y="400" width="480" height="110" as="geometry" />
        </mxCell>
        <mxCell id="xbROvSDmepULWa9lhDUd-33" value="" style="edgeStyle=orthogonalEdgeStyle;rounded=0;orthogonalLoop=1;jettySize=auto;html=1;" edge="1" parent="1" source="xbROvSDmepULWa9lhDUd-20">
          <mxGeometry relative="1" as="geometry">
            <mxPoint x="445" y="440" as="targetPoint" />
          </mxGeometry>
        </mxCell>
        <mxCell id="xbROvSDmepULWa9lhDUd-20" value="基于加速度冗余分解" style="rounded=1;whiteSpace=wrap;html=1;" vertex="1" parent="1">
          <mxGeometry x="280" y="420" width="110" height="40" as="geometry" />
        </mxCell>
        <mxCell id="xbROvSDmepULWa9lhDUd-30" value="存在奇异无解析解" style="text;html=1;strokeColor=none;fillColor=none;align=center;verticalAlign=middle;whiteSpace=wrap;rounded=0;" vertex="1" parent="1">
          <mxGeometry x="285" y="470" width="60" height="30" as="geometry" />
        </mxCell>
        <mxCell id="xbROvSDmepULWa9lhDUd-34" value="基于虚拟基座" style="rounded=1;whiteSpace=wrap;html=1;" vertex="1" parent="1">
          <mxGeometry x="450" y="420" width="100" height="40" as="geometry" />
        </mxCell>
        <mxCell id="xbROvSDmepULWa9lhDUd-36" value="无需求解雅克比矩阵的伪逆或导数" style="text;html=1;strokeColor=none;fillColor=none;align=center;verticalAlign=middle;whiteSpace=wrap;rounded=0;" vertex="1" parent="1">
          <mxGeometry x="460" y="470" width="110" height="30" as="geometry" />
        </mxCell>
      </root>
    </mxGraphModel>
  </diagram>
</mxfile>
